<?xml version="1.0" encoding="utf-8"?>
<!-- Generator: Adobe Illustrator 25.2.0, SVG Export Plug-In . SVG Version: 6.00 Build 0)  -->
<svg version="1.1" id="Layer_1" xmlns="http://www.w3.org/2000/svg" xmlns:xlink="http://www.w3.org/1999/xlink" x="0px" y="0px"
	 viewBox="0 0 360 120" style="enable-background:new 0 0 360 120;" xml:space="preserve">
<style type="text/css">
	.st0{fill:#FFFFFF;}
	.st1{fill:#03C4A1;}
	.st2{fill:#FE3A5E;}
	.st3{display:none;fill:#03C4A1;}
	.st4{display:none;}
	.st5{display:inline;fill:#8D29ED;}
	.st6{display:inline;}
	.st7{fill:#8D29ED;}
</style>
<path class="st0" d="M106,90.4c-6.3,0.4-12.5-2.3-16.5-7.2c-4.2-6.2-6.1-13.6-5.6-21.1c-0.5-7.7,1.5-15.4,5.7-21.9
	c4-5.1,10.2-7.8,16.7-7.4c4.2-0.2,8.3,0.9,11.8,3.2c3.1,2.3,5.1,5.7,5.6,9.5h3.9l-3.2,15.3c0.4-5.7-1.1-11.4-4.3-16.2
	c-3-3.7-7.7-5.8-12.5-5.5c-4.8-0.3-9.5,1.9-12.4,5.8C92.1,50,90.6,56,91,62.1c-0.4,5.8,1.1,11.5,4.2,16.3c3,3.8,7.6,5.9,12.4,5.6
	c4.8,0.3,9.4-1.7,12.5-5.5c3.1-4.8,4.6-10.4,4.2-16.1l3.8,14.8h-4.3c-0.5,3.8-2.5,7.2-5.4,9.6C114.7,89.4,110.4,90.7,106,90.4z
	 M125.3,89.9l-1.1-13.3V10.9h7v78.6L125.3,89.9z"/>
<path class="st0" d="M161.5,90.4c-6.6,0.3-13-2.4-17.3-7.5c-4.5-6.1-6.6-13.7-6.2-21.2c-0.5-7.6,1.7-15.1,6.2-21.3
	c4.3-5.1,10.7-7.8,17.3-7.5c6.6-0.4,13,2.4,17.3,7.5c4.5,6.2,6.6,13.7,6.1,21.3c0.5,7.6-1.7,15.1-6.1,21.2
	C174.5,88,168.1,90.8,161.5,90.4z M161.5,83.9c4.7,0.2,9.2-2,12-5.8c3.1-4.9,4.6-10.6,4.3-16.4c0.4-5.8-1.1-11.6-4.3-16.5
	c-5.3-6.6-15-7.7-21.6-2.4c-0.9,0.7-1.7,1.5-2.4,2.4c-3.1,4.9-4.6,10.7-4.3,16.5c-0.4,5.8,1.1,11.5,4.3,16.4
	C152.2,81.9,156.7,84.1,161.5,83.9z"/>
<path class="st0" d="M218.9,90.4c-7.8,0.5-15.6-2.1-21.4-7.4c-5.3-5.9-7.9-13.6-7.4-21.5c-0.5-7.7,2.1-15.3,7.1-21.1
	c5.4-5.3,12.7-8,20.2-7.5c4.6-0.1,9.2,0.9,13.4,3c3.6,1.8,6.4,4.8,7.9,8.5l-5.8,4c-1.5-2.9-3.9-5.3-6.8-6.9c-2.8-1.4-6-2.1-9.1-2.1
	c-5.4-0.3-10.8,1.7-14.6,5.6c-3.7,4.5-5.6,10.2-5.2,16c-0.4,6.2,1.6,12.4,5.7,17.1c4.5,4.1,10.5,6.2,16.6,5.8c2.8,0,5.5-0.1,8.2-0.4
	s5.4-0.7,8-1.2l0.8,6.4c-2.9,0.7-5.8,1.2-8.8,1.4C224.7,90.3,221.8,90.4,218.9,90.4z"/>
<path class="st1" d="M262.2,90.4c-6.3,0.4-12.5-2.3-16.5-7.2c-4.2-6.2-6.1-13.6-5.6-21.1c-0.5-7.7,1.5-15.4,5.7-21.9
	c4-5.1,10.2-7.8,16.7-7.4c4.2-0.2,8.4,0.9,11.9,3.2c3.1,2.3,5.1,5.7,5.6,9.5h3.9l-3.4,15.3c0.4-5.7-1.1-11.4-4.3-16.2
	c-3-3.7-7.7-5.8-12.5-5.5c-4.8-0.3-9.5,1.9-12.4,5.8c-3.1,5.1-4.6,11.1-4.2,17.2c-0.4,5.8,1.1,11.5,4.2,16.3c3,3.8,7.6,5.9,12.4,5.6
	c4.8,0.3,9.4-1.7,12.5-5.5c3.1-4.8,4.6-10.4,4.2-16.1l3.8,14.8h-4.4c-0.5,3.8-2.5,7.2-5.4,9.6C270.8,89.4,266.5,90.7,262.2,90.4z
	 M244.6,114.4l-0.3-6.4l16.7-0.6c5.5,0.3,10.8-1.8,14.7-5.6c3.4-4.4,5.1-10,4.7-15.6V46.3l0.7-12.4h6.3v50.5
	c0.6,7.8-1.7,15.7-6.6,21.8c-5.7,5.2-13.2,7.9-20.9,7.6L244.6,114.4z"/>
<path class="st1" d="M317.7,90.4c-6.6,0.3-13-2.4-17.3-7.5c-4.5-6.1-6.7-13.7-6.2-21.2c-0.5-7.6,1.7-15.1,6.2-21.3
	c8.9-9.5,23.9-10,33.4-1.1c0.4,0.4,0.8,0.7,1.1,1.1c4.5,6.2,6.6,13.7,6.1,21.3c0.5,7.6-1.7,15.1-6.1,21.2
	C330.7,88,324.3,90.8,317.7,90.4z M317.7,83.9c4.7,0.2,9.2-2,12-5.8c3.1-4.9,4.6-10.6,4.3-16.4c0.4-5.8-1.1-11.6-4.3-16.5
	c-5.3-6.6-15-7.7-21.6-2.4c-0.9,0.7-1.7,1.5-2.4,2.4c-3.1,4.9-4.6,10.7-4.3,16.5c-0.4,5.8,1.1,11.5,4.3,16.4
	C308.4,81.9,312.9,84.1,317.7,83.9z"/>
<path class="st2" d="M-32.9-57.5"/>
<polygon class="st1" points="65.3,17.6 40.6,89.1 56.8,89.1 81.5,17.6 "/>
<polygon class="st3" points="65.3,17.6 40.6,89.1 56.8,89.1 81.5,17.6 "/>
<path class="st2" d="M65.9,20.4"/>
<g class="st4">
	<path class="st5" d="M62.6,71.9V65c0.2-1.9-0.4-3.8-1.6-5.2c-1.4-1.2-3.2-1.8-5.1-1.6c-2.2,0-4.3,0.6-6.2,1.6c-2,1.1-4,2.3-6.1,3.6
		c-2.6,1.7-5.4,3.1-8.2,4.3c-2.9,1.2-6,1.8-9.2,1.8c-5.1,0.5-10.1-1.6-13.5-5.4C9.5,58.9,8,52.8,8.5,46.7v-8.3H25v6.9
		c-0.2,1.8,0.3,3.7,1.3,5.2c1.1,1.2,2.6,1.8,4.2,1.6c1.9,0,3.9-0.6,5.5-1.7c1.8-1.1,3.6-2.3,5.7-3.6c2.6-1.7,5.4-3.2,8.3-4.4
		c3-1.2,6.2-1.8,9.4-1.8c5.6-0.5,11.1,1.5,15,5.4c3.6,5.1,5.2,11.2,4.7,17.4v8.3H62.6V71.9z"/>
</g>
<polygon class="st1" points="39.3,17.6 14.6,89.1 30.9,89.1 55.6,17.6 "/>
<g class="st4">
	<g class="st6">
		<path class="st7" d="M57.6,40.7l-6.1,17.6c0.6-0.1,1.3-0.2,1.9-0.2c1.8-0.2,3.7,0.4,5.1,1.6c1.2,1.5,1.8,3.3,1.6,5.2v6.9h2.7l9-26
			C67.9,42.3,62.8,40.4,57.6,40.7z"/>
		<path class="st0" d="M63.1,72.4h-3.5V65c0.2-1.8-0.4-3.5-1.5-4.9c-1.2-1-2.9-1.6-4.6-1.4c-0.6,0-1.2,0.1-1.9,0.2L50.8,59l6.4-18.7
			h0.3c5.4-0.3,10.6,1.6,14.5,5.3l0.2,0.2L63.1,72.4z M60.6,71.4h1.8L71.1,46c-3.6-3.3-8.3-5-13.2-4.9l-5.7,16.5
			c0.4,0,0.8-0.1,1.2-0.1c1.9-0.2,3.9,0.5,5.4,1.8c1.3,1.6,1.9,3.6,1.8,5.7V71.4z"/>
	</g>
</g>
<g>
	<path class="st0" d="M25.1,51.5c-0.4-0.3-0.9-0.6-1.2-1c-1-1.5-1.5-3.4-1.3-5.2v-6.9H6.1v8.3C5.6,52.8,7,58.9,10.2,64.1
		c2.3,2.6,5.4,4.4,8.8,5.1L25.1,51.5z"/>
</g>
<path class="st0" d="M72,46c-3.9-3.9-9.4-5.9-15-5.4c-2.2,0-4.5,0.3-6.7,0.9l-7.1,20.6c1.3-0.8,2.7-1.6,4-2.3c1.9-1,4-1.6,6.2-1.6
	c1.9-0.2,3.7,0.4,5.1,1.6c1.2,1.4,1.8,3.3,1.6,5.2v6.7h16.6v-8.3C77.2,57.2,75.6,51.1,72,46z"/>
</svg>
