<svg xmlns="http://www.w3.org/2000/svg" viewBox="0 0 137.932 43"><defs/><path d="M16.76 14.41h-.26a5.86 5.86 0 00-2.32-3.93 8.218 8.218 0 00-4.9-1.35 8.167 8.167 0 00-6.92 3.09C.79 14.28 0 17.3 0 21.3q0 5.79 2.34 8.76a8.178 8.178 0 006.86 2.98 7.988 7.988 0 005.09-1.46 6.234 6.234 0 002.26-4h.24l.43 5.24 2.43-.15V0h-2.89zM15 28.13a6.13 6.13 0 01-5.17 2.28 6.047 6.047 0 01-5.16-2.32c-1.17-1.54-1.75-3.81-1.75-6.79q0-4.71 1.75-7.13a5.946 5.946 0 015.14-2.41 6.15 6.15 0 015.18 2.28q1.77 2.28 1.77 6.72v.67q0 4.425-1.76 6.7zm17.24-19a8.767 8.767 0 00-7.17 3.12q-2.565 3.12-2.57 8.84 0 5.7 2.57 8.83a8.745 8.745 0 007.17 3.13 8.725 8.725 0 007.18-3.13q2.55-3.135 2.55-8.83 0-5.715-2.55-8.84a8.747 8.747 0 00-7.18-3.12zm4.99 18.78a5.817 5.817 0 01-4.99 2.41 5.83 5.83 0 01-4.99-2.41 11.38 11.38 0 01-1.77-6.83q0-4.44 1.77-6.84a5.834 5.834 0 014.99-2.4 5.846 5.846 0 014.99 2.4Q39 16.64 39 21.08a11.38 11.38 0 01-1.77 6.83z" fill="#03c4a1"/><path d="M70.656 31.418l-4.669-1.245.835-2.44 4.457 1.843zM69 35.116l-2.041-1.593 3.2-3.623 1.53 1.195zm1.009-4.594l-.349-4.818h2.578l-.287 4.818zm2.888 4.594l-2.739-3.984 1.532-1.195 3.25 3.586zm-1.618-3.648l-.623-1.842 4.458-1.893.821 2.44z" fill="#b755f9"/><path d="M63.02 29.712c-1.1.2-2.2.4-3.3.5h-.7l-1.2 2.8a14.085 14.085 0 002-.1 20.811 20.811 0 003.6-.6zM48.826 39.412l8.47-19.4h2.69l-8.48 19.4z" fill="#03c4a1"/><path d="M61.02 10.413a11.891 11.891 0 00-5.6-1.2c-3.6 0-6.4 1-8.4 3.1s-3 5-3 8.8c0 3.9 1 6.9 3.1 8.9a9.306 9.306 0 002.1 1.556l1.486-2.662a7.14 7.14 0 01-1.286-.995c-1.6-1.6-2.4-4-2.4-7.1 0-2.9.7-5.1 2.2-6.6a8.944 8.944 0 019.9-1.4 6.28 6.28 0 012.1 1.9l1.3-3.1c-.5-.4-.9-.8-1.5-1.2z" fill="#03c4a1"/><path d="M81.68 14.41h-.21a5.835 5.835 0 00-2.33-3.93 8.372 8.372 0 00-4.96-1.35 8.167 8.167 0 00-6.92 3.09q-2.355 3.09-2.36 9.09a18.975 18.975 0 00.72 5.516 6.031 6.031 0 012.487-2.28 17.003 17.003 0 01-.287-3.246q0-4.71 1.75-7.13a5.946 5.946 0 015.14-2.41 6.15 6.15 0 015.18 2.28q1.77 2.28 1.77 6.72v.67q0 4.425-1.76 6.7a5.597 5.597 0 01-3.135 2.03 5.978 5.978 0 01-.76 2.72 6.72 6.72 0 003.125-1.29 6.266 6.266 0 002.25-4h.28v3.67c-.01 2.86-.66 5.01-1.95 6.47q-1.92 2.19-6.12 2.34l-6.96.26.14 2.67 6.39-.22c3.96-.14 6.84-1.19 8.66-3.14s2.73-4.97 2.73-9.08v-21h-2.61zM104.33 12.25a9.81 9.81 0 00-14.35 0q-2.565 3.12-2.57 8.84 0 5.7 2.57 8.83a9.789 9.789 0 0014.35 0q2.55-3.135 2.55-8.83 0-5.715-2.55-8.84zm-2.2 15.66a6.37 6.37 0 01-9.98 0 11.38 11.38 0 01-1.77-6.83q0-4.44 1.77-6.84a6.388 6.388 0 019.98 0q1.77 2.4 1.77 6.84a11.242 11.242 0 01-1.77 6.83z" fill="#b755f9"/><path d="M106.773 14.24a.822.822 0 01-.6-.4l-1-1.6c-.1-.2-.1-.4.2-.4h21.5a1.08 1.08 0 01.7.3l1.3 1.6c.1.2.1.3-.2.3zM109.173 19.64c-.2 0-.5-.1-.5-.4l-.5-1.4c-.1-.2.1-.4.3-.4h27.4a1.08 1.08 0 01.7.3l1.3 1.6c.1.2.1.3-.2.3zM109.973 25.34a.43.43 0 01-.4-.4l-.1-1.4a.366.366 0 01.4-.4h12a.822.822 0 01.6.4l.8 1.5c.1.2.1.4-.2.4z" fill="#b755f9" fill-rule="evenodd"/></svg>