<?xml version="1.0" encoding="utf-8"?>
<!-- Generator: Adobe Illustrator 25.2.0, SVG Export Plug-In . SVG Version: 6.00 Build 0)  -->
<svg version="1.1" id="Layer_1" xmlns="http://www.w3.org/2000/svg" xmlns:xlink="http://www.w3.org/1999/xlink" x="0px" y="0px"
	 viewBox="0 0 153 61.6" style="enable-background:new 0 0 153 61.6;" xml:space="preserve">
<style type="text/css">
	.st0{fill:#03C4A1;}
	.st1{fill:#B755F9;}
</style>
<path class="st0" d="M24.1,20.6h-0.5c-0.3-2.2-1.5-4.3-3.3-5.6c-2.1-1.4-4.5-2.1-7-1.9c-3.9-0.2-7.6,1.4-10,4.5
	C1.1,20.5,0,24.7,0,30.5c0,5.5,1.1,9.7,3.3,12.6c2.4,2.9,6.1,4.5,9.8,4.2c2.6,0.1,5.2-0.6,7.3-2.1c1.7-1.5,2.8-3.5,3.2-5.7h0.3
	l0.6,7.4l3.6-0.2V0h-4.2L24.1,20.6z M21.5,40.3c-1.8,2.2-4.6,3.4-7.4,3.2c-2.9,0.2-5.7-1-7.4-3.3C5,38,4.2,34.8,4.2,30.5
	c0-4.5,0.8-7.9,2.4-10.2c1.8-2.3,4.5-3.6,7.4-3.4c2.9-0.2,5.6,1,7.3,3.3c1.7,2.2,2.5,5.4,2.5,9.6v0.9C23.9,34.9,23.1,38.1,21.5,40.3
	L21.5,40.3z M46.2,13.1c-3.9-0.2-7.8,1.5-10.3,4.5c-2.4,3-3.7,7.2-3.7,12.7c0,5.4,1.3,9.6,3.7,12.6c2.6,3,6.4,4.7,10.3,4.5
	c3.9,0.2,7.8-1.5,10.3-4.5c2.4-3,3.7-7.2,3.7-12.6c0-5.5-1.3-9.7-3.7-12.7C53.9,14.5,50.1,12.9,46.2,13.1z M53.3,40
	c-1.6,2.3-4.3,3.6-7.1,3.4c-2.8,0.2-5.5-1.1-7.1-3.4c-1.9-2.9-2.8-6.3-2.6-9.7c0-4.4,0.9-7.6,2.6-9.8c1.6-2.3,4.3-3.6,7.1-3.4
	c2.8-0.2,5.5,1.1,7.1,3.4c1.7,2.3,2.6,5.6,2.6,9.8C56.1,33.7,55.1,37.1,53.3,40z"/>
<path class="st0" d="M101.1,45l-6.6-1.8l1.1-3.4l6.4,2.6L101.1,45z M98.8,50.3l-3-2.3l4.6-5.2l2.2,1.7L98.8,50.3z M100.2,43.7
	l-0.5-7h3.7l-0.5,7H100.2z M104.3,50.3l-3.9-5.7l2.2-1.7l4.7,5.2L104.3,50.3z M102,45l-0.9-2.6l6.4-2.6l1.1,3.4L102,45z"/>
<path class="st1" d="M116.9,20.6h-0.3c-0.3-2.3-1.5-4.3-3.3-5.6c-2.1-1.4-4.6-2.1-7.1-1.9c-3.8-0.2-7.5,1.4-9.8,4.5
	c-2.3,3-3.4,7.2-3.4,12.9c0,2.7,0.3,5.3,1,7.9c0.9-1.4,2.1-2.5,3.6-3.2c-0.2-1.6-0.3-3.1-0.3-4.7c0-4.5,0.8-7.9,2.5-10.2
	c3.5-4.1,9.7-4.6,13.8-1.1c0.4,0.3,0.7,0.6,1,1c1.6,2.2,2.5,5.4,2.5,9.6v0.9c0,4.2-0.9,7.4-2.5,9.6c-1.2,1.4-2.7,2.4-4.5,2.9
	c-0.1,1.4-0.5,2.7-1.1,3.9c1.6-0.2,3.1-0.9,4.5-1.8c1.7-1.4,2.9-3.5,3.2-5.7h0.5v5.3c0,4.1-0.9,7.1-2.9,9.3
	c-1.8,2.1-4.7,3.2-8.7,3.3l-10,0.3l0.2,3.9l9.2-0.3c5.6-0.2,9.7-1.7,12.4-4.5c2.5-2.9,3.9-7.2,3.9-13.1v-30h-3.8L116.9,20.6z
	 M149.3,17.5c-5.3-5.7-14.1-6-19.8-0.7c-0.2,0.2-0.5,0.5-0.7,0.7c-2.5,3-3.7,7.2-3.7,12.7c0,5.4,1.1,9.6,3.7,12.6
	c5.3,5.7,14.1,6,19.8,0.7c0.2-0.2,0.5-0.5,0.7-0.7c2.4-3,3.7-7.2,3.7-12.6C153,24.7,151.7,20.5,149.3,17.5z M146.2,40
	c-3.2,4-8.9,4.6-12.9,1.4c-0.5-0.4-1-0.9-1.4-1.4c-1.8-2.9-2.7-6.3-2.5-9.7c0-4.4,0.8-7.6,2.5-9.8c3.2-4,8.9-4.6,12.9-1.4
	c0.5,0.4,1,0.9,1.4,1.4c1.6,2.3,2.5,5.5,2.5,9.8C149,33.7,148.1,37.1,146.2,40z"/>
<path class="st1" d="M71.3,47.8l0.5-2.7H83l-0.5,2.7H71.3z M72,51.2l4-15.4h2.6l-4,15.4H72z M72.3,41.8l0.5-2.7H84l-0.5,2.7H72.3z
	 M76.6,51.2l4-15.4h2.6l-4,15.4H76.6z"/>
<path class="st1" d="M77.3,26.6"/>
<path class="st0" d="M71.7,41.2c-0.3-0.3-0.6-0.5-0.8-0.8c-1.8-2.1-2.7-5.2-2.7-9.1c0-3.9,0.9-7,2.6-9.1c1.9-2.2,4.7-3.4,7.6-3.2
	c1.6,0,3.2,0.3,4.7,0.8c1.5,0.6,2.9,1.5,4.2,2.7V17c-1.4-0.8-2.9-1.4-4.4-1.9c-1.5-0.4-3-0.6-4.5-0.6c-4.9,0-8.8,1.5-11.6,4.4
	c-2.8,3-4.2,7.1-4.2,12.3c0,5.2,1.4,9.3,4.2,12.3c1,1.1,2.2,1.9,3.4,2.6L71.7,41.2z"/>
<path class="st0" d="M83.4,47.3c1.4-0.4,2.7-1,4-1.7v-5.4c-0.7,0.7-1.6,1.3-2.4,1.8L83.4,47.3z"/>
</svg>
