<svg id="Layer_1" data-name="Layer 1" xmlns="http://www.w3.org/2000/svg" width="67.43994" height="22.69482" viewBox="0 0 67.43994 22.69482"><path d="M48.50928,36.44141a3.44139,3.44139,0,0,1-2.88037-1.25,5.87486,5.87486,0,0,1-.981-3.6792,6.25754,6.25754,0,0,1,.981-3.81592,3.3894,3.3894,0,0,1,2.88037-1.2959,2.86238,2.86238,0,0,1,1.76611.51123,2.02838,2.02838,0,0,1,.79883,1.42383h.74853l-.56591,2.75684a3.71651,3.71651,0,0,0-.58887-2.27295,2.03762,2.03762,0,0,0-1.73-.77588,2.01233,2.01233,0,0,0-1.771.876,4.58872,4.58872,0,0,0-.602,2.59278,4.16545,4.16545,0,0,0,.602,2.45556,2.30895,2.30895,0,0,0,3.501.05469,3.71453,3.71453,0,0,0,.58887-2.273l.65722,2.75733h-.83984a1.9389,1.9389,0,0,1-.77149,1.42382A2.90964,2.90964,0,0,1,48.50928,36.44141Zm2.94824-.09082-.20068-1.89942V22.56641h1.93505V36.25879Z" transform="translate(-22.38232 -19.99268)" style="fill:#03c4a1"/><path d="M58.333,36.44141A3.8672,3.8672,0,0,1,55.21094,35.127a5.56858,5.56858,0,0,1-1.11377-3.70605A5.56764,5.56764,0,0,1,55.21094,27.71a4.38159,4.38159,0,0,1,6.24853,0,5.58264,5.58264,0,0,1,1.10889,3.71094A5.58358,5.58358,0,0,1,61.45947,35.127,3.86373,3.86373,0,0,1,58.333,36.44141Zm0-1.73438a1.87275,1.87275,0,0,0,1.64746-.85742,4.31339,4.31339,0,0,0,.57959-2.42871,4.30675,4.30675,0,0,0-.57959-2.43262,2.01721,2.01721,0,0,0-3.29541,0,4.31075,4.31075,0,0,0-.57959,2.43262,4.3174,4.3174,0,0,0,.57959,2.42871A1.87413,1.87413,0,0,0,58.333,34.707Z" transform="translate(-22.38232 -19.99268)" style="fill:#03c4a1"/><path d="M68.34863,36.44141a5.27475,5.27475,0,0,1-3.82031-1.30079,4.95769,4.95769,0,0,1-1.34668-3.73828,5.08092,5.08092,0,0,1,1.27344-3.6875,4.83162,4.83162,0,0,1,3.63769-1.31445,5.19131,5.19131,0,0,1,2.42383.5249,3.05965,3.05965,0,0,1,1.4375,1.48291l-1.48779,1.123a2.93967,2.93967,0,0,0-1.04981-1.03174A2.76939,2.76939,0,0,0,68.02,28.13477a2.74023,2.74023,0,0,0-2.127.82617,3.352,3.352,0,0,0-.75782,2.3501,3.37767,3.37767,0,0,0,.89014,2.5249,3.482,3.482,0,0,0,2.542.87109q.676,0,1.35108-.06348.67529-.06444,1.31445-.17382l.21924,1.69824a10.55343,10.55343,0,0,1-1.54736.21875Q69.10571,36.44239,68.34863,36.44141Z" transform="translate(-22.38232 -19.99268)" style="fill:#03c4a1"/><path d="M75.7627,36.44141a3.44143,3.44143,0,0,1-2.88038-1.25,5.87492,5.87492,0,0,1-.981-3.6792,6.25761,6.25761,0,0,1,.981-3.81592,3.38943,3.38943,0,0,1,2.88038-1.2959,3.04606,3.04606,0,0,1,1.83447.51123,1.998,1.998,0,0,1,.82178,1.42383h.749l-.65723,2.75684a3.71316,3.71316,0,0,0-.58935-2.27295,2.03762,2.03762,0,0,0-1.73-.77588,2.01233,2.01233,0,0,0-1.771.876,4.58872,4.58872,0,0,0-.60205,2.59278,4.16545,4.16545,0,0,0,.60205,2.45556,2.30895,2.30895,0,0,0,3.501.05469,3.71119,3.71119,0,0,0,.58935-2.273l.65723,2.75733h-.83985a1.93935,1.93935,0,0,1-.772,1.42382A2.90964,2.90964,0,0,1,75.7627,36.44141ZM72.686,40.62207l-.09083-1.77051,3.10352-.09179a2.81276,2.81276,0,0,0,2.13574-.81153,3.38418,3.38418,0,0,0,.67627-2.25488V28.62744l.18262-2.04443h1.752v8.81836a5.35493,5.35493,0,0,1-1.17773,3.81543,5.23355,5.23355,0,0,1-3.75147,1.31445Z" transform="translate(-22.38232 -19.99268)" style="fill:#fe3a5e"/><path d="M85.58594,36.44141a3.86453,3.86453,0,0,1-3.1211-1.31446,5.56344,5.56344,0,0,1-1.11425-3.70605A5.56251,5.56251,0,0,1,82.46484,27.71a4.381,4.381,0,0,1,6.24805,0,5.58272,5.58272,0,0,1,1.10938,3.71094A5.58366,5.58366,0,0,1,88.71289,35.127,3.86342,3.86342,0,0,1,85.58594,36.44141Zm0-1.73438a1.87384,1.87384,0,0,0,1.64844-.85742,4.32162,4.32162,0,0,0,.5791-2.42871,4.31495,4.31495,0,0,0-.5791-2.43262,2.01768,2.01768,0,0,0-3.2959,0,4.307,4.307,0,0,0-.5791,2.43262,4.31358,4.31358,0,0,0,.5791,2.42871A1.87331,1.87331,0,0,0,85.58594,34.707Z" transform="translate(-22.38232 -19.99268)" style="fill:#fe3a5e"/><path d="M22.04414,17.365" transform="translate(-22.38232 -19.99268)" style="fill:#fe3a5e"/><path d="M22.38232,42.6875V38.59863q0-8.8418,1.11475-12.85547,1.114-4.0122,3.58789-4.0122a3.13993,3.13993,0,0,1,2.39453,1.37988,22.68558,22.68558,0,0,1,2.13379,3.16895q.85328,1.48314,1.61084,2.93945.75805,1.45605,1.57617,1.45654.78369,0,1.13233-1.45654a21.95038,21.95038,0,0,0,.34814-4.626V19.99268h3.51807V24.082q0,8.84327-.99268,12.85547-.99243,4.01367-3.187,4.0127A3.0815,3.0815,0,0,1,33.26758,39.544a24.973,24.973,0,0,1-2.10742-3.14356q-.8877-1.58349-1.69776-2.99023-.81006-1.40479-1.69824-1.40528-.97559,0-1.41943,1.457a17.32258,17.32258,0,0,0-.44434,4.626V42.6875Z" transform="translate(-22.38232 -19.99268)" style="fill:#fe3a5e"/></svg>