<svg id="Layer_1" data-name="Layer 1" xmlns="http://www.w3.org/2000/svg" width="61.56738" height="19.01611" viewBox="0 0 61.56738 19.01611"><path d="M20.84318,17.48564A3.62235,3.62235,0,0,1,17.81,16.16826a6.18385,6.18385,0,0,1-1.03369-3.874,6.54376,6.54376,0,0,1,1.043-4.01855,3.6179,3.6179,0,0,1,3.0625-1.36475,3.61252,3.61252,0,0,1,2.16748.59522,2.605,2.605,0,0,1,1.02392,1.74023h.71143l-.5957,2.80762a4.78011,4.78011,0,0,0-.7837-2.9707,2.72664,2.72664,0,0,0-2.293-1.00977,2.6287,2.6287,0,0,0-2.27344,1.06738,5.345,5.345,0,0,0-.77393,3.15332,4.927,4.927,0,0,0,.77393,3.00391,2.683,2.683,0,0,0,2.2832,1.02441,2.71344,2.71344,0,0,0,2.28809-1.00976,4.78545,4.78545,0,0,0,.77881-2.96094l.69189,2.7207h-.78809a2.76531,2.76531,0,0,1-1,1.76856A3.51838,3.51838,0,0,1,20.84318,17.48564Zm3.54737-.09668-.20166-2.45117V2.87285h1.27832v14.4497Z" transform="translate(-2.47795 -2.87285)" style="fill:#03c4a1"/><path d="M31.03605,17.48564a3.87431,3.87431,0,0,1-3.17285-1.38477,6.00036,6.00036,0,0,1-1.13427-3.90332,5.99851,5.99851,0,0,1,1.13427-3.9082,3.88261,3.88261,0,0,1,3.17285-1.37842A3.87977,3.87977,0,0,1,34.2133,8.28935a6.01762,6.01762,0,0,1,1.12939,3.9082,6.01948,6.01948,0,0,1-1.12939,3.90332A3.87147,3.87147,0,0,1,31.03605,17.48564Zm0-1.20215a2.57836,2.57836,0,0,0,2.20606-1.06641,5.03085,5.03085,0,0,0,.78369-3.01953,5.02365,5.02365,0,0,0-.78369-3.02343,2.822,2.822,0,0,0-4.4126,0,5.02365,5.02365,0,0,0-.78369,3.02343,5.03085,5.03085,0,0,0,.78369,3.01953A2.57864,2.57864,0,0,0,31.03605,16.28349Z" transform="translate(-2.47795 -2.87285)" style="fill:#03c4a1"/><path d="M41.58439,17.48564a5.32688,5.32688,0,0,1-3.93213-1.35547A5.35328,5.35328,0,0,1,36.2968,12.179a5.44713,5.44713,0,0,1,1.30273-3.88477,4.8564,4.8564,0,0,1,3.71582-1.3833,5.107,5.107,0,0,1,2.45606.55274,3.15189,3.15189,0,0,1,1.45654,1.562l-1.05762.73047a2.99232,2.99232,0,0,0-1.25439-1.25977,3.68694,3.68694,0,0,0-1.67774-.38476A3.4805,3.4805,0,0,0,38.55607,9.1458a4.15039,4.15039,0,0,0-.96142,2.93652,4.31094,4.31094,0,0,0,1.043,3.13476,4.082,4.082,0,0,0,3.05224,1.06641,15.08247,15.08247,0,0,0,1.51465-.07617q.7544-.07764,1.46582-.22168l.15381,1.18262a10.0397,10.0397,0,0,1-1.61523.25488Q42.382,17.48612,41.58439,17.48564Z" transform="translate(-2.47795 -2.87285)" style="fill:#03c4a1"/><path d="M49.54631,17.48564a3.62237,3.62237,0,0,1-3.03321-1.31738,6.18392,6.18392,0,0,1-1.03369-3.874,6.54382,6.54382,0,0,1,1.043-4.01855,3.6179,3.6179,0,0,1,3.0625-1.36475,3.6713,3.6713,0,0,1,2.1919.59522A2.59873,2.59873,0,0,1,52.8051,9.24638H53.517L52.892,12.054a4.78027,4.78027,0,0,0-.7832-2.9707,2.72761,2.72761,0,0,0-2.29346-1.00977,2.62871,2.62871,0,0,0-2.27344,1.06738,5.345,5.345,0,0,0-.77392,3.15332,4.927,4.927,0,0,0,.77392,3.00391,2.68307,2.68307,0,0,0,2.28321,1.02441,2.71437,2.71437,0,0,0,2.28857-1.00976,4.78869,4.78869,0,0,0,.77832-2.96094l.69238,2.7207H52.767a2.77253,2.77253,0,0,1-.99512,1.76856A3.46477,3.46477,0,0,1,49.54631,17.48564ZM46.30607,21.889l-.05761-1.18262,3.07666-.11523a3.61542,3.61542,0,0,0,2.70654-1.03418,4.24417,4.24417,0,0,0,.86035-2.85938V9.38115l.125-2.27784h1.15332v9.28663a5.72932,5.72932,0,0,1-1.206,4.01367,5.30222,5.30222,0,0,1-3.83155,1.38867Z" transform="translate(-2.47795 -2.87285)" style="fill:#fe3a5e"/><path d="M59.73967,17.48564a3.873,3.873,0,0,1-3.17285-1.38477,5.99762,5.99762,0,0,1-1.13477-3.90332,5.99577,5.99577,0,0,1,1.13477-3.9082,4.34535,4.34535,0,0,1,6.34961,0,6.012,6.012,0,0,1,1.1289,3.9082,6.01383,6.01383,0,0,1-1.1289,3.90332A3.87179,3.87179,0,0,1,59.73967,17.48564Zm0-1.20215a2.57955,2.57955,0,0,0,2.20605-1.06641,5.03774,5.03774,0,0,0,.78321-3.01953,5.03051,5.03051,0,0,0-.78321-3.02343,2.82246,2.82246,0,0,0-4.41308,0,5.02373,5.02373,0,0,0-.78321,3.02343,5.03092,5.03092,0,0,0,.78321,3.01953A2.57893,2.57893,0,0,0,59.73967,16.28349Z" transform="translate(-2.47795 -2.87285)" style="fill:#fe3a5e"/><path d="M-4.68338-9.70265" transform="translate(-2.47795 -2.87285)" style="fill:#fe3a5e"/><polygon points="10.881 1.231 6.339 14.374 9.323 14.374 13.865 1.231 10.881 1.231" style="fill:#03c4a1"/><path d="M13.47939,4.61724" transform="translate(-2.47795 -2.87285)" style="fill:#fe3a5e"/><path d="M12.4008,14.07757v-1.272a1.33382,1.33382,0,0,0-.29248-.96045,1.25285,1.25285,0,0,0-.92871-.29931,2.32248,2.32248,0,0,0-1.13867.29931q-.54053.29883-1.12549.66748a9.96006,9.96006,0,0,1-1.50781.79541,4.27408,4.27408,0,0,1-1.68555.33692A2.92722,2.92722,0,0,1,3.248,12.64641a5.27354,5.27354,0,0,1-.77-3.1997V7.92034H5.51848v1.272a1.52917,1.52917,0,0,0,.2417.96045.93948.93948,0,0,0,.77636.29932,1.82744,1.82744,0,0,0,1.00489-.312q.48339-.31128,1.043-.65479a8.8077,8.8077,0,0,1,1.52051-.80176A4.50877,4.50877,0,0,1,11.82853,8.353a3.46878,3.46878,0,0,1,2.76075.99853A4.83645,4.83645,0,0,1,15.454,12.5512v1.52637Z" transform="translate(-2.47795 -2.87285)" style="fill:#fe3a5e"/><path d="M17.49945-1.14617" transform="translate(-2.47795 -2.87285)" style="fill:#fe3a5e"/><polygon points="6.118 1.231 1.576 14.374 4.56 14.374 9.102 1.231 6.118 1.231" style="fill:#03c4a1"/></svg>