<?xml version="1.0" encoding="utf-8"?>
<!-- Generator: Adobe Illustrator 25.2.0, SVG Export Plug-In . SVG Version: 6.00 Build 0)  -->
<svg version="1.1" id="Layer_1" xmlns="http://www.w3.org/2000/svg" xmlns:xlink="http://www.w3.org/1999/xlink" x="0px" y="0px"
	 viewBox="0 0 145.3 50" style="enable-background:new 0 0 145.3 50;" xml:space="preserve">
<style type="text/css">
	.st0{fill-rule:evenodd;clip-rule:evenodd;fill:#B755F9;}
	.st1{fill:#03C4A1;}
	.st2{fill:#B755F9;}
	.st3{fill:#D5EFEA;}
</style>
<path class="st0" d="M113.4,18.2c-0.2,0-0.5-0.2-0.6-0.4l-1-1.6c-0.1-0.2-0.1-0.4,0.2-0.4h21.5c0.2,0,0.5,0.1,0.7,0.3l1.3,1.6
	c0.1,0.2,0.1,0.3-0.2,0.3L113.4,18.2z"/>
<path class="st0" d="M115.8,23.6c-0.2,0-0.5-0.1-0.5-0.4l-0.5-1.4c-0.1-0.2,0.1-0.4,0.3-0.4h27.4c0.2,0,0.5,0.1,0.7,0.3l1.3,1.6
	c0.1,0.2,0.1,0.3-0.2,0.3H115.8z"/>
<path class="st0" d="M116.6,29.3c-0.2,0-0.4-0.2-0.4-0.4l-0.1-1.4c0-0.2,0.1-0.4,0.4-0.4h12c0.2,0,0.5,0.2,0.6,0.4l0.8,1.5
	c0.1,0.2,0.1,0.4-0.2,0.4L116.6,29.3z"/>
<g>
	<path class="st1" d="M22.6,19.4h-0.3c-0.3-1.7-1.1-3-2.3-3.9c-1.2-0.9-2.9-1.3-4.9-1.3c-3,0-5.4,1-6.9,3.1s-2.4,5.1-2.4,9.1
		c0,3.9,0.8,6.8,2.3,8.8c1.6,2,3.8,3,6.9,3c2.2,0,3.9-0.5,5.1-1.5s2-2.3,2.3-4h0.2l0.4,5.2l2.4-0.2V5h-2.9L22.6,19.4L22.6,19.4z
		 M22.6,26.4c0,3-0.6,5.2-1.8,6.7s-2.9,2.3-5.2,2.3s-4-0.8-5.2-2.3s-1.8-3.8-1.8-6.8c0-3.1,0.6-5.5,1.8-7.1s2.9-2.4,5.1-2.4
		c2.3,0,4,0.8,5.2,2.3c1.2,1.5,1.8,3.8,1.8,6.7v0.6H22.6z"/>
	<path class="st1" d="M38.1,14.1c-3.1,0-5.5,1-7.2,3.1s-2.6,5-2.6,8.8s0.9,6.7,2.6,8.8C32.7,37,35,38,38.1,38s5.5-1,7.2-3.1
		s2.6-5,2.6-8.8s-0.9-6.8-2.6-8.8C43.6,15.2,41.2,14.1,38.1,14.1z M43.1,32.9c-1.2,1.6-2.8,2.4-5,2.4c-2.1,0-3.8-0.8-5-2.4
		c-1.2-1.6-1.8-3.9-1.8-6.8c0-3,0.6-5.2,1.8-6.8c1.2-1.6,2.8-2.4,5-2.4c2.1,0,3.8,0.8,5,2.4s1.8,3.9,1.8,6.8
		C44.9,29,44.3,31.3,43.1,32.9z"/>
	<path class="st1" d="M68.9,34.7c-1.1,0.2-2.2,0.4-3.3,0.5c-0.2,0-0.4,0-0.7,0L63.7,38c0.6,0,1.3,0,2-0.1c1.2-0.1,2.5-0.3,3.6-0.6
		L68.9,34.7z"/>
</g>
<path class="st1" d="M69.3,32.8"/>
<path class="st1" d="M70.1,28.8"/>
<g>
	<path class="st2" d="M87.5,19.4h-0.2c-0.3-1.7-1.1-3-2.3-3.9c-1.2-0.9-2.9-1.3-5-1.3c-3,0-5.3,1-6.9,3.1s-2.4,5.1-2.4,9.1
		c0,0.4,0,0.8,0,1.3c1-0.1,2-0.1,2.9,0.2c0-0.5-0.1-0.9-0.1-1.4c0-3.1,0.6-5.5,1.8-7.1s2.9-2.4,5.1-2.4c2.3,0,4,0.8,5.2,2.3
		s1.8,3.8,1.8,6.7v0.7c0,3-0.6,5.2-1.8,6.7s-2.9,2.3-5.2,2.3c-1.4,0-2.5-0.3-3.5-0.8c-0.3,0.9-0.7,1.8-1.3,2.6
		C77,37.8,78.4,38,80,38c2.1,0,3.8-0.5,5-1.5s2-2.3,2.2-4h0.3v3.7c0,2.9-0.7,5-2,6.5s-3.3,2.2-6.1,2.3l-7,0.3l0.1,2.7l6.4-0.2
		c4-0.1,6.8-1.2,8.7-3.1s2.7-5,2.7-9.1v-21h-2.6L87.5,19.4z"/>
	<path class="st2" d="M110.2,17.2c-1.7-2.1-4.1-3.1-7.2-3.1s-5.5,1-7.2,3.1s-2.6,5-2.6,8.8s0.9,6.7,2.6,8.8C97.6,37,100,38,103,38
		c3.1,0,5.5-1,7.2-3.1s2.5-5,2.5-8.8C112.8,22.3,111.9,19.3,110.2,17.2z M108,32.9c-1.2,1.6-2.8,2.4-5,2.4s-3.8-0.8-5-2.4
		c-1.2-1.6-1.8-3.9-1.8-6.8c0-3,0.6-5.2,1.8-6.8c1.2-1.6,2.8-2.4,5-2.4s3.8,0.8,5,2.4s1.8,3.9,1.8,6.8S109.2,31.3,108,32.9z"/>
</g>
<path class="st3" d="M54.7,44.4L63.2,25h2.7l-8.5,19.4C57.4,44.4,54.7,44.4,54.7,44.4z"/>
<path class="st3" d="M74.4,34.7l-3.8,1l-0.4-2.1l3.9-0.5L74.4,34.7z M74.8,38l-2.1-0.3l0.8-3.9l1.6,0.2L74.8,38z M73.6,34.4
	l-2.2-3.2l1.8-1.1l1.8,3.5C74.9,33.6,73.6,34.4,73.6,34.4z M77.5,36.4l-3.6-1.7l0.6-1.5l3.7,1.2C78.3,34.4,77.5,36.4,77.5,36.4z
	 M74.9,34.5l-1.2-1l2.3-3.2l1.6,1.4C77.6,31.7,74.9,34.5,74.9,34.5z"/>
<path class="st3" d="M54.3,39.4"/>
<path class="st3" d="M52.1,41"/>
<path class="st1" d="M66.9,15.4c-1.5-0.8-3.4-1.2-5.6-1.2c-3.6,0-6.4,1-8.4,3.1c-2,2.1-3,5-3,8.8c0,3.9,1,6.9,3.1,8.9
	c0.6,0.6,1.3,1.1,2.1,1.6l1.5-2.7c-0.5-0.3-0.9-0.6-1.3-1c-1.6-1.6-2.4-4-2.4-7.1c0-2.9,0.7-5.1,2.2-6.6s3.5-2.3,6.1-2.3
	c1.4,0,2.6,0.3,3.8,0.9c0.8,0.4,1.5,1.1,2.1,1.9l1.3-3.1C67.9,16.2,67.5,15.8,66.9,15.4z"/>
</svg>
